Coordinates
version=1
nRows=17
nColumns=38
inDegrees=no

Units are S.I. units (second, meters, Newtons, ...)
If the header above contains a line with 'inDegrees', this indicates whether rotational values are in degrees (yes) or radians (no).

endheader
time	pelvis_tilt	pelvis_list	pelvis_rotation	pelvis_tx	pelvis_ty	pelvis_tz	hip_flexion_r	hip_adduction_r	hip_rotation_r	knee_angle_r	ankle_angle_r	subtalar_angle_r	mtp_angle_r	hip_flexion_l	hip_adduction_l	hip_rotation_l	knee_angle_l	ankle_angle_l	subtalar_angle_l	mtp_angle_l	lumbar_extension	lumbar_bending	lumbar_rotation	arm_flex_r	arm_add_r	arm_rot_r	elbow_flex_r	pro_sup_r	wrist_flex_r	wrist_dev_r	arm_flex_l	arm_add_l	arm_rot_l	elbow_flex_l	pro_sup_l	wrist_flex_l	wrist_dev_l
0	-0.600536	1.45164	-0.808574	0.398306	1.536	1.06678	0.396339	0.0094917	0.0355312	0.868971	-0.297688	0	0	-0.193937	-0.0929123	-0.156822	0.297539	-0.103283	0	0	-0.419474	0.0913487	0.12791	0.162182	-0.668496	0.820548	0.842251	0.774055	0	0	0.207037	-0.314488	0.749767	0.70599	0.574768	0	0
0.01	-0.631139	1.45826	-0.779818	0.399684	1.52671	1.06498	0.41054	0.00888497	0.0411047	0.835472	-0.28562	0	0	-0.199223	-0.0887109	-0.150985	0.290683	-0.101727	0	0	-0.413658	0.0891389	0.127928	0.162711	-0.668633	0.818723	0.842289	0.774695	0	0	0.204663	-0.311522	0.740953	0.70536	0.576106	0	0
0.02	-0.666233	1.46382	-0.745146	0.401182	1.5171	1.06316	0.421536	0.00795111	0.0425527	0.798463	-0.27503	0	0	-0.203407	-0.0871227	-0.14789	0.286402	-0.100846	0	0	-0.407324	0.0879379	0.128006	0.161412	-0.668553	0.816178	0.841917	0.776324	0	0	0.202956	-0.309513	0.736225	0.704386	0.579122	0	0
0.03	-0.709052	1.46982	-0.701223	0.402816	1.50715	1.06125	0.431941	0.00534495	0.0390412	0.760739	-0.263825	0	0	-0.205635	-0.0858729	-0.146574	0.286959	-0.0981758	0	0	-0.399337	0.0866986	0.127499	0.158068	-0.667226	0.811863	0.840289	0.778852	0	0	0.200755	-0.306387	0.729869	0.701931	0.58238	0	0
0.04	-0.768608	1.47633	-0.639404	0.404582	1.497	1.05918	0.442106	0.00223857	0.0334233	0.721637	-0.252469	0	0	-0.205566	-0.0851768	-0.144983	0.289606	-0.0944574	0	0	-0.389208	0.085534	0.127019	0.152889	-0.664719	0.806153	0.836906	0.782373	0	0	0.198975	-0.302741	0.724847	0.697877	0.587384	0	0
0.05	-0.791113	1.48166	-0.617493	0.405666	1.48719	1.05725	0.450452	-0.000667192	0.0318025	0.688723	-0.241301	0	0	-0.209779	-0.082642	-0.14714	0.292477	-0.0914768	0	0	-0.380892	0.088909	0.122719	0.151553	-0.668287	0.803514	0.843974	0.785036	0	0	0.196302	-0.29722	0.720901	0.686441	0.588195	0	0
0.06	-0.858576	1.48724	-0.549522	0.407001	1.47683	1.05509	0.458677	-0.00268332	0.0273317	0.650634	-0.22633	0	0	-0.210417	-0.0822549	-0.148867	0.296836	-0.0861995	0	0	-0.371429	0.0896234	0.122314	0.146153	-0.669411	0.797969	0.847231	0.78812	0	0	0.194029	-0.292585	0.715521	0.679683	0.593046	0	0
0.07	-0.893961	1.49123	-0.516693	0.407828	1.46678	1.05314	0.46459	-0.00335191	0.0271054	0.617485	-0.211267	0	0	-0.215093	-0.0809397	-0.154902	0.300977	-0.0817549	0	0	-0.366692	0.0882791	0.123949	0.14315	-0.671293	0.794171	0.851974	0.791634	0	0	0.19185	-0.290754	0.710249	0.678281	0.598419	0	0
0.08	-0.929581	1.49461	-0.481246	0.408956	1.45656	1.05129	0.46674	-0.00470881	0.0239362	0.580711	-0.194499	0	0	-0.219741	-0.080427	-0.159083	0.305562	-0.0772863	0	0	-0.363068	0.0879579	0.123274	0.139362	-0.673052	0.787967	0.857731	0.79598	0	0	0.188342	-0.289475	0.701351	0.678675	0.605454	0	0
0.09	-0.979938	1.49772	-0.429829	0.41017	1.44599	1.04933	0.46756	-0.00570217	0.0194336	0.543484	-0.179549	0	0	-0.223488	-0.0807164	-0.161553	0.310617	-0.0736276	0	0	-0.357904	0.0883227	0.121456	0.135139	-0.673778	0.782175	0.862116	0.799867	0	0	0.183927	-0.288768	0.692709	0.679481	0.611283	0	0
0.1	-1.02314	1.49987	-0.384575	0.411364	1.43515	1.0474	0.469494	-0.00682645	0.0130005	0.516478	-0.16364	0	0	-0.228397	-0.0819979	-0.164033	0.315674	-0.0703368	0	0	-0.3529	0.0892174	0.119251	0.130514	-0.674271	0.777517	0.86606	0.80368	0	0	0.179587	-0.288461	0.685478	0.680184	0.616387	0	0
0.11	-1.06086	1.50158	-0.344334	0.412517	1.42406	1.04547	0.471566	-0.00782213	0.00656143	0.496793	-0.148346	0	0	-0.233964	-0.0836375	-0.166614	0.320922	-0.0677359	0	0	-0.347907	0.0901622	0.116863	0.125573	-0.67449	0.773907	0.869579	0.806551	0	0	0.175328	-0.288683	0.680069	0.680877	0.619024	0	0
0.12	-1.09514	1.50264	-0.3072	0.413628	1.41279	1.04354	0.471759	-0.00827158	0.000376114	0.479555	-0.133734	0	0	-0.23989	-0.0858826	-0.168932	0.326742	-0.0651979	0	0	-0.343096	0.0915855	0.114286	0.12044	-0.674376	0.770461	0.872633	0.808453	0	0	0.171152	-0.289435	0.676425	0.681357	0.621639	0	0
0.13	-1.12033	1.50307	-0.279071	0.414703	1.40139	1.04164	0.470358	-0.00794764	-0.00339102	0.466786	-0.121525	0	0	-0.246611	-0.088717	-0.171166	0.332781	-0.0627812	0	0	-0.339052	0.0933803	0.111799	0.115266	-0.674349	0.767307	0.875854	0.809947	0	0	0.166965	-0.290041	0.672968	0.681581	0.623867	0	0
0.14	-1.14068	1.50303	-0.255497	0.415761	1.38977	1.03972	0.469573	-0.00686527	-0.00336222	0.463273	-0.114207	0	0	-0.253698	-0.0921377	-0.172874	0.339048	-0.0613485	0	0	-0.335111	0.0955646	0.109277	0.109829	-0.674332	0.764791	0.878948	0.810839	0	0	0.162769	-0.290875	0.670922	0.681402	0.625743	0	0
0.15	-1.1788	1.50234	-0.211725	0.417065	1.37779	1.0377	0.469253	-0.00527378	-0.00184279	0.465744	-0.108504	0	0	-0.258798	-0.0974324	-0.172035	0.346876	-0.059593	0	0	-0.3295	0.0991207	0.105126	0.103028	-0.673585	0.761753	0.881219	0.811984	0	0	0.157856	-0.291268	0.668375	0.680208	0.62732	0	0
0.16	-1.23992	1.50084	-0.142972	0.418493	1.36542	1.03551	0.469775	-0.00280534	-0.000136399	0.473869	-0.105343	0	0	-0.261376	-0.104634	-0.168507	0.356376	-0.0575243	0	0	-0.321279	0.103971	0.0992979	0.0952303	-0.67152	0.758377	0.881885	0.813681	0	0	0.1522	-0.291737	0.666389	0.67786	0.629891	0	0
